<?xml version="1.0" encoding="UTF-8" standalone="no"?>
<svg width="69px" height="56px" viewBox="0 0 69 56" version="1.1" xmlns="http://www.w3.org/2000/svg" xmlns:xlink="http://www.w3.org/1999/xlink" xmlns:sketch="http://www.bohemiancoding.com/sketch/ns">
    <!-- Generator: Sketch 3.3.2 (12043) - http://www.bohemiancoding.com/sketch -->
    <title>Artboard</title>
    <desc>Created with Sketch.</desc>
    <defs></defs>
    <g id="Page-1" stroke="none" stroke-width="1" fill="none" fill-rule="evenodd" sketch:type="MSPage">
        <g id="Artboard" sketch:type="MSArtboardGroup" fill="#2D2D2D">
            <path d="M66.090283,25.3338491 C64.4833208,25.3338491 63.180566,24.0319623 63.180566,22.4267358 C63.180566,20.8206415 64.4833208,19.5191887 66.090283,19.5191887 C67.6972453,19.5191887 69,20.8206415 69,22.4267358 C69,24.0319623 67.6972453,25.3338491 66.090283,25.3338491 L66.090283,25.3338491 Z M54.0881887,7.57915094 C52.854434,7.57915094 51.853717,6.57973585 51.853717,5.34728302 C51.853717,4.11439623 52.854434,3.11498113 54.0881887,3.11498113 C55.3219434,3.11498113 56.3222264,4.11439623 56.3222264,5.34728302 C56.3222264,6.57973585 55.3219434,7.57915094 54.0881887,7.57915094 L54.0881887,7.57915094 Z M27.7974528,55.5471698 C12.4451698,55.5471698 0,43.1128491 0,27.7735849 C0,12.4347547 12.4451698,0 27.7974528,0 C43.1497358,0 55.5949057,12.4347547 55.5949057,27.7735849 C55.5949057,43.1128491 43.1497358,55.5471698 27.7974528,55.5471698 L27.7974528,55.5471698 Z M14.7143585,39.2041509 L15.7176792,39.2041509 L15.7176792,38.4247547 L15.7363396,38.4247547 C15.8456981,38.5358491 15.9802264,38.7406792 16.1403585,38.8613208 C16.3000566,38.9828302 16.4697358,39.0644151 16.6493962,39.134283 C16.8290566,39.2041509 17.0104528,39.2549245 17.1935849,39.2861698 C17.3771509,39.3174151 17.5429245,39.3334717 17.6913396,39.3334717 C18.1513396,39.3334717 18.5553585,39.2514528 18.9025283,39.0874151 C19.2496981,38.9238113 19.538283,38.6998868 19.768717,38.4152075 C19.998717,38.1305283 20.170566,37.7972453 20.2838302,37.4149245 C20.3966604,37.0334717 20.4535094,36.627717 20.4535094,36.1989623 C20.4535094,35.7702075 20.3949245,35.3644528 20.2777547,34.982566 C20.1605849,34.6006792 19.987,34.2630566 19.757,33.971 C19.526566,33.6780755 19.2379811,33.4459057 18.8908113,33.2744906 C18.5436415,33.1030755 18.1361509,33.016283 17.6679057,33.016283 C17.2465283,33.016283 16.8603019,33.0904906 16.5092264,33.2419434 C16.157717,33.3942642 15.9003774,33.6355472 15.7363396,33.9696981 L15.7176792,33.9696981 L15.7176792,30.8512453 L14.7143585,30.8512453 L14.7143585,39.2041509 L14.7143585,39.2041509 Z M21.6256415,20.7967736 C21.6256415,19.8529057 21.4316604,19.1368679 21.0380566,18.6343396 C20.6444528,18.1322453 20.033,17.8879245 19.1971887,17.8879245 C18.6035283,17.8879245 18.0914528,18.032 17.6618302,18.2919434 C17.2317736,18.5523208 16.9197547,18.9337736 16.7257736,19.4909811 L16.6897547,19.4909811 C16.5560943,18.9337736 16.2926792,18.5714151 15.8990755,18.3049623 C15.5054717,18.0389434 15.0181321,17.8814151 14.4366226,17.8814151 C13.891566,17.8814151 13.4220189,17.986 13.0284151,18.1795472 C12.6343774,18.3735283 12.2802642,18.7111509 11.9652075,19.1568302 L11.9274528,19.1568302 L11.9274528,18.1543774 L9.47513208,18.1543774 L9.47513208,27.8443208 L12.0389811,27.8443208 L12.0389811,21.4685472 C12.0389811,20.8874717 12.1630943,20.4643585 12.3996038,20.1979057 C12.6356792,19.9318868 12.9598491,19.7982264 13.3595283,19.7982264 C13.7106038,19.7982264 13.9748868,19.9075849 14.1267736,20.125 C14.2777925,20.343283 14.3797736,20.6579057 14.3797736,21.0693019 L14.3797736,27.8443208 L16.8320943,27.8443208 L16.8320943,21.4685472 C16.8320943,20.8874717 16.9579434,20.4643585 17.1940189,20.1979057 C17.4300943,19.9318868 17.755566,19.7982264 18.1552453,19.7982264 C18.5067547,19.7982264 18.7701698,19.9075849 18.9216226,20.125 C19.0730755,20.343283 19.1733208,20.6579057 19.1733208,21.0693019 L19.1733208,27.8443208 L21.6256415,27.8443208 L21.6256415,20.7967736 L21.6256415,20.7967736 Z M21.7640755,34.1155094 C21.6239057,34.3724151 21.5457925,34.638 21.5301698,35.0836792 L22.5248113,35.0836792 C22.5482453,34.638 22.700566,34.316 22.9813396,34.1558679 C23.2625472,33.9961698 23.6136226,33.8954906 24.035,33.8954906 C24.1907925,33.8954906 24.3487547,33.9067736 24.5088868,33.9302075 C24.6690189,33.9536415 24.8130943,34.0005094 24.9419811,34.0703774 C25.0708679,34.1406792 25.1758868,34.2422264 25.2579057,34.3745849 C25.3399245,34.5069434 25.380717,34.6826981 25.380717,34.9014151 C25.380717,35.0880189 25.3260377,35.2307925 25.2171132,35.327566 C25.1077547,35.4252075 24.9597736,35.4994151 24.7723019,35.5501887 C24.5848302,35.6005283 24.368283,35.6395849 24.1226604,35.6669245 C23.8770377,35.6942642 23.6175283,35.7350566 23.3441321,35.7897358 C23.0867925,35.8366038 22.8350943,35.8947547 22.5894717,35.9650566 C22.3434151,36.0349245 22.1251321,36.1390755 21.9337547,36.2749057 C21.7428113,36.4116038 21.5887547,36.5890943 21.4715849,36.8069434 C21.3544151,37.0252264 21.2958302,37.306434 21.2958302,37.6492642 C21.2958302,37.9530377 21.3487736,38.2125472 21.4537925,38.4269245 C21.5592453,38.6413019 21.7015849,38.8144528 21.8812453,38.9472453 C22.0604717,39.0800377 22.2731132,39.1772453 22.5191698,39.2397358 C22.7647925,39.3017925 23.0238679,39.3334717 23.2972642,39.3334717 C23.7186415,39.3334717 24.1105094,39.261 24.4733019,39.1169245 C24.8360943,38.9724151 25.1533208,38.7367736 25.426717,38.4091321 C25.426717,38.7367736 25.5017925,38.9724151 25.6541132,39.1169245 C25.806,39.261 26.0086604,39.3334717 26.266434,39.3334717 C26.5706415,39.3334717 26.8648679,39.2822642 26.9763962,39.1811509 L26.9763962,38.4091321 C26.8648679,38.4408113 26.7754717,38.456 26.6895472,38.456 C26.5333208,38.456 26.4595472,38.4017547 26.4322075,38.2928302 C26.4048679,38.1839057 26.4187547,38.0124906 26.4187547,37.7790189 L26.4187547,34.6748868 C26.4187547,34.3251132 26.3250189,34.0417358 26.1926604,33.8234528 C26.0598679,33.6060377 25.8567736,33.4372264 25.6384906,33.3161509 C25.4197736,33.1959434 25.1758868,33.1169623 24.9068302,33.0783396 C24.6377736,33.0388491 24.3665472,33.0206226 24.0935849,33.0206226 C23.7498868,33.0206226 23.4278868,33.0579434 23.1275849,33.1286792 C22.827283,33.1989811 22.5599623,33.3191887 22.3260566,33.4788868 C22.0921509,33.6385849 21.9046792,33.8577358 21.7640755,34.1155094 L21.7640755,34.1155094 Z M30.2992453,27.0527736 C30.256717,26.7984717 30.2089811,26.4673585 30.2089811,26.0073585 L30.2089811,20.8692453 C30.2089811,20.4339811 30.1903208,20.0316981 30.0996226,19.6619623 C30.0084906,19.2935283 29.8626792,18.9758679 29.6083774,18.7089811 C29.3540755,18.4429623 28.9969245,18.2372642 28.5364906,18.0918868 C28.0760566,17.9465094 27.4711132,17.8744717 26.7199245,17.8744717 C26.2477736,17.8744717 25.8033962,17.9256792 25.3854906,18.0285283 C24.9675849,18.1313774 24.6056604,18.3006226 24.2966792,18.5366981 C23.9876981,18.7727736 23.7455472,19.0813208 23.5641509,19.4627736 C23.3823208,19.8442264 23.2976981,20.3189811 23.2976981,20.8874717 L23.2976981,21.1617358 L25.5269623,21.1617358 L25.5269623,20.8514528 C25.5269623,20.4643585 25.6293774,20.1558113 25.8233585,19.9258113 C26.0169057,19.6958113 26.3133019,19.5803774 26.7012642,19.5803774 C27.1248113,19.5803774 27.4246792,19.6866981 27.600434,19.8984717 C27.7761887,20.1102453 27.8638491,20.4036038 27.8638491,20.7785472 C27.8638491,21.1053208 27.7913774,21.3535472 27.646,21.5232264 C27.5006226,21.6924717 27.2398113,21.8256981 26.8648679,21.9224717 L25.4475472,22.3039245 C25.0114151,22.425 24.6390755,22.5638679 24.3300943,22.7213962 C24.0211132,22.8789245 23.7668113,23.0750755 23.5667547,23.3111509 C23.3671321,23.5472264 23.218283,23.8314717 23.1215094,24.1643208 C23.0247358,24.4976038 22.9761321,24.8929434 22.9761321,25.3529434 C22.9761321,25.679717 23.0186604,26.0090943 23.103717,26.3419434 C23.1879057,26.6747925 23.321566,26.9733585 23.5033962,27.2393774 C23.6847925,27.5053962 23.9269434,27.7123962 24.2298491,27.8629811 C24.5327547,28.014434 24.9024906,28.0856038 25.3381887,28.0856038 C25.944,28.0856038 26.4378491,28.0009811 26.8193019,27.8495283 C27.2007547,27.6985094 27.5370755,27.3986415 27.8278302,26.841434 L27.8638491,26.841434 C27.9003019,27.0644906 27.9393585,27.1764528 27.9823208,27.3522075 C28.0244151,27.5279623 28.0882075,27.7327925 28.1728302,27.8443208 L30.5713396,27.8443208 C30.4502642,27.6216981 30.3417736,27.3066415 30.2992453,27.0527736 L30.2992453,27.0527736 Z M31.625,33.4098868 C31.4028113,33.2653774 31.1472075,33.1642642 30.8586226,33.1056792 C30.5696038,33.0470943 30.2536792,33.0180189 29.9104151,33.0180189 C29.6452642,33.0180189 29.3779434,33.051434 29.1084528,33.1173962 C28.8393962,33.1842264 28.5976792,33.2853396 28.3828679,33.4216038 C28.1684906,33.5583019 27.9927358,33.7357925 27.8564717,33.9536415 C27.7197736,34.1719245 27.6516415,34.4331698 27.6516415,34.7369434 C27.6516415,35.1270755 27.7488491,35.431283 27.9441321,35.649566 C28.1389811,35.8678491 28.3828679,36.0375283 28.6757925,36.1586038 C28.968283,36.2788113 29.2859434,36.3725472 29.6296415,36.4385094 C29.9729057,36.5053396 30.291,36.5791132 30.5834906,36.6611321 C30.8759811,36.7431509 31.1198679,36.8503396 31.3151509,36.9826981 C31.51,37.1150566 31.6076415,37.3099057 31.6076415,37.5672453 C31.6076415,37.754283 31.5607736,37.9083396 31.4670377,38.0289811 C31.3733019,38.1504906 31.2543962,38.2420566 31.1103208,38.3041132 C30.9658113,38.3666038 30.8078491,38.409566 30.636,38.433434 C30.4645849,38.456434 30.3005472,38.4685849 30.1443208,38.4685849 C29.9416604,38.4685849 29.7446415,38.4499245 29.5532642,38.4108679 C29.3623208,38.3718113 29.1904717,38.3093208 29.0385849,38.2194906 C28.8862642,38.1300943 28.7634528,38.0124906 28.669717,37.8597358 C28.5759811,37.708283 28.5252075,37.5338302 28.5178302,37.3112075 L27.5227547,37.3112075 C27.5383774,37.6453585 27.6164906,37.9968679 27.7566604,38.2581132 C27.8972642,38.5193585 28.0847358,38.7233208 28.3186415,38.8825849 C28.5525472,39.042717 28.8220377,39.157717 29.1262453,39.2280189 C29.4304528,39.2978868 29.750283,39.3334717 30.0861698,39.3334717 C30.3903774,39.3334717 30.6963208,39.3039623 31.0048679,39.2453774 C31.3129811,39.1867925 31.590283,39.0839434 31.8359057,38.9355283 C32.0815283,38.7875472 32.280717,38.5926981 32.4330377,38.3509811 C32.5849245,38.1092642 32.6613019,37.8054906 32.6613019,37.4387925 C32.6613019,37.1497736 32.6044528,36.9084906 32.4911887,36.7136415 C32.3779245,36.5187925 32.2299434,36.3569245 32.0463774,36.2284717 C31.8632453,36.0995849 31.6523396,35.9963019 31.4145283,35.9181887 C31.176283,35.8405094 30.9323962,35.7741132 30.6828679,35.7198679 C30.4489623,35.6647547 30.2146226,35.6122453 29.980717,35.5614717 C29.7468113,35.5111321 29.5359057,35.4486415 29.348434,35.374434 C29.1613962,35.3006604 29.0073396,35.2069245 28.8862642,35.0936604 C28.7651887,34.9808302 28.7048679,34.8384906 28.7048679,34.6670755 C28.7048679,34.511283 28.7439245,34.3841321 28.8220377,34.2869245 C28.899717,34.1888491 29.0012642,34.1107358 29.1262453,34.0521509 C29.2507925,33.994 29.3896604,33.9519057 29.5419811,33.9284717 C29.6938679,33.9054717 29.8440189,33.8920189 29.992434,33.8920189 C30.1560377,33.8920189 30.3179057,33.9063396 30.4780377,33.9414906 C30.6377358,33.9762075 30.7844151,34.0265472 30.9172075,34.1046604 C31.049566,34.1823396 31.1589245,34.2726038 31.2448491,34.4014906 C31.3307736,34.5303774 31.3811132,34.7495283 31.3967358,34.8610566 L32.3918113,34.8610566 C32.3683774,34.5264717 32.2902642,34.2140189 32.1579057,33.9688302 C32.0251132,33.7232075 31.8476226,33.5543962 31.625,33.4098868 L31.625,33.4098868 Z M37.2317925,17.9104906 C37.1202642,17.8983396 37.0599434,17.8966038 36.9813962,17.8900943 C36.9024151,17.8840189 36.8034717,17.8879245 36.730566,17.8879245 C36.2098113,17.8879245 35.7676038,18.0441509 35.4043774,18.3283962 C35.040717,18.6130755 34.7321698,18.9337736 34.477434,19.4909811 L34.4448868,19.4909811 L34.4448868,18.1543774 L31.992566,18.1543774 L31.992566,27.8443208 L34.5564151,27.8443208 L34.5564151,22.0313962 C34.5564151,21.7046226 34.6093585,21.4294906 34.718283,21.205566 C34.8272075,20.9816415 34.971283,20.8002453 35.1526792,20.6609434 C35.3345094,20.5220755 35.5371698,20.4218302 35.7554528,20.3610755 C35.9733019,20.3003208 36.1972264,20.2703774 36.4155094,20.2703774 C36.5483019,20.2703774 36.6906415,20.2734151 36.8177925,20.2794906 C36.9449434,20.285566 37.0087358,20.2946792 37.2317925,20.3068302 L37.2317925,17.9104906 L37.2317925,17.9104906 Z M36.2775094,33.0180189 C35.8639434,33.0180189 35.4837925,33.096566 35.1366226,33.2519245 C34.7894528,33.4081509 34.488717,33.626434 34.235283,33.9067736 C33.9814151,34.1875472 33.7848302,34.5190943 33.6442264,34.9014151 C33.5036226,35.2833019 33.4337547,35.7042453 33.4337547,36.1642453 C33.4489434,36.6242453 33.5170755,37.0495283 33.6385849,37.4392264 C33.7592264,37.8293585 33.9406226,38.1652453 34.1827736,38.4460189 C34.4244906,38.7263585 34.7230566,38.9468113 35.0780377,39.1021698 C35.4330189,39.2579623 35.8522264,39.3391132 36.3365283,39.3391132 C37.0226226,39.3391132 37.5924151,39.1737736 38.0450377,38.8309434 C38.4976604,38.4881132 38.7901509,37.9795094 38.9229434,37.3112075 L37.9395849,37.3112075 C37.8536604,37.6453585 37.6766038,37.9946981 37.4071132,38.1891132 C37.1380566,38.3843962 36.7926226,38.4711887 36.3712453,38.4711887 C36.0436038,38.4711887 35.7589245,38.4199811 35.5167736,38.3106226 C35.2750566,38.2016981 35.0758679,38.0619623 34.9200755,37.8788302 C34.7638491,37.6952642 34.6510189,37.4978113 34.580283,37.26 C34.5104151,37.0217547 34.4791698,36.754434 34.4869811,36.5313774 L39.0166792,36.5313774 C39.0323019,36.0861321 38.9988868,35.753283 38.9173019,35.3475283 C38.835283,34.9426415 38.6868679,34.5425283 38.4724906,34.1992642 C38.2576792,33.856 37.973,33.5734906 37.6180189,33.3517358 C37.2626038,33.1291132 36.8160566,33.0180189 36.2775094,33.0180189 L36.2775094,33.0180189 Z M40.5008302,19.8437925 C40.7369057,19.6684717 41.0124717,19.5803774 41.3275283,19.5803774 C41.7393585,19.5803774 42.0270755,19.6979811 42.1906792,19.9340566 C42.354283,20.1701321 42.4358679,20.493434 42.4358679,21.0502075 L44.700283,21.0502075 L44.700283,20.6518302 C44.700283,19.768283 44.4221132,19.0843585 43.8770566,18.6004906 C43.332,18.1166226 42.4840377,17.8744717 41.3457547,17.8744717 C40.7034906,17.8744717 40.1553962,17.9525849 39.7014717,18.1101132 C39.2471132,18.2676415 38.8743396,18.4798491 38.5840189,18.7458679 C38.2932642,19.0118868 38.0810566,19.3239057 37.9478302,19.6801887 C37.8146038,20.0377736 37.7482075,20.4157547 37.7482075,20.815 C37.7482075,21.505 37.9235283,22.0708868 38.2750377,22.5122264 C38.6261132,22.954434 39.1468679,23.2963962 39.8373019,23.5381132 L41.5996226,24.173434 C41.8417736,24.2706415 42.0535472,24.4003962 42.2353774,24.564 C42.4172075,24.7276038 42.5074717,24.966283 42.5074717,25.2809057 C42.5074717,25.668434 42.3907358,25.9591887 42.1607358,26.1518679 C41.9303019,26.3458491 41.618717,26.4430566 41.2311887,26.4430566 C40.8072075,26.4430566 40.4778302,26.3128679 40.2539057,26.0529245 C40.0295472,25.7921132 39.9071698,25.4505849 39.9071698,25.0270377 L39.9071698,24.7258679 L37.6774717,24.7258679 L37.6774717,25.0452642 C37.6774717,25.5169811 37.7308491,25.943566 37.8397736,26.3250189 C37.9491321,26.7060377 38.1387736,27.0302075 38.4113019,27.2962264 C38.6838302,27.5626792 39.0531321,27.7618679 39.5196415,27.8950943 C39.985717,28.0283208 40.5702642,28.094717 41.273283,28.094717 C41.8057547,28.094717 42.2935283,28.0404717 42.7357358,27.9315472 C43.1779434,27.8226226 43.5593962,27.6407925 43.8805283,27.3873585 C44.2012264,27.1326226 44.4529245,26.8149623 44.6343208,26.4339434 C44.8161509,26.0529245 44.9068491,25.6020377 44.9068491,25.081283 C44.9068491,24.3431132 44.7436792,23.759434 44.4164717,23.3293774 C44.0892642,22.9001887 43.5320566,22.551717 42.7448491,22.2856981 L41.2368302,21.7770943 C40.8124151,21.6443019 40.5246981,21.4806981 40.3736792,21.2871509 C40.2222264,21.0936038 40.146283,20.8757547 40.146283,20.6336038 C40.146283,20.2825283 40.2647547,20.0191132 40.5008302,19.8437925 L40.5008302,19.8437925 Z M44.4772264,30.8512453 L44.4772264,33.9696981 L44.435566,33.9696981 C44.3262075,33.7470755 44.1916792,33.6385849 44.0319811,33.5170755 C43.8718491,33.396434 43.7021698,33.2970566 43.5229434,33.2228491 C43.343283,33.1490755 43.1636226,33.096566 42.9843962,33.0648868 C42.8047358,33.0336415 42.6367925,33.0180189 42.481,33.0180189 C42.020566,33.0180189 41.6165472,33.1022075 41.2693774,33.269717 C40.9222075,33.4372264 40.6336226,33.6633208 40.4036226,33.948 C40.1731887,34.2322453 40.0013396,34.5659623 39.8885094,34.948283 C39.7752453,35.3301698 39.7188302,35.7359245 39.7188302,36.1646792 C39.7188302,36.593434 39.7774151,36.9996226 39.8941509,37.3810755 C40.0113208,37.7638302 40.1849057,38.1001509 40.4153396,38.3883019 C40.6453396,38.6768868 40.9339245,38.9090566 41.2815283,39.0804717 C41.6282642,39.2518868 42.0361887,39.3430189 42.504434,39.3430189 C42.9258113,39.3430189 43.3120377,39.2787925 43.6631132,39.1308113 C44.0141887,38.9828302 44.2719623,38.7589057 44.435566,38.4247547 L44.4772264,38.4247547 L44.4772264,39.2041509 L45.4805472,39.2041509 L45.4805472,30.8512453 L44.4772264,30.8512453 L44.4772264,30.8512453 Z M44.0727736,37.7486415 C43.9243585,37.9630189 43.7334151,38.1361698 43.4995094,38.2689623 C43.2651698,38.4017547 42.9804906,38.4681509 42.6450377,38.4681509 C42.3247736,38.4681509 42.0461698,38.4052264 41.8079245,38.2806792 C41.5701132,38.1561321 41.3748302,37.9881887 41.2229434,37.7781509 C41.0706226,37.5672453 40.9573585,37.3272642 40.8831509,37.0586415 C40.8089434,36.7895849 40.7720566,36.5148868 40.7720566,36.2341132 C40.7720566,35.9381509 40.8033019,35.649566 40.8657925,35.3683585 C40.928283,35.0880189 41.0298302,34.8384906 41.17,34.6202075 C41.3106038,34.4019245 41.4976415,34.2266038 41.7319811,34.0938113 C41.9658868,33.9614528 42.250566,33.8954906 42.5864528,33.8954906 C42.929717,33.8954906 43.2222075,33.959717 43.4643585,34.0881698 C43.7060755,34.2170566 43.9030943,34.3867358 44.0554151,34.5967736 C44.2073019,34.8072453 44.3188302,35.0511321 44.3886981,35.327566 C44.459,35.6048679 44.4941509,35.891283 44.4941509,36.1872453 C44.4941509,36.4675849 44.4607358,36.7448868 44.3947736,37.0178491 C44.3283774,37.2908113 44.2211887,37.5342642 44.0727736,37.7486415 L44.0727736,37.7486415 Z M34.6388679,34.9608679 C34.7247925,34.7543019 34.8419623,34.5542453 34.9903774,34.3980189 C35.1383585,34.2422264 35.3158491,34.1194151 35.5228491,34.0295849 C35.7294151,33.9401887 35.9615849,33.8954906 36.2193585,33.8954906 C36.4688868,33.8954906 36.6971509,33.9401887 36.903717,34.0295849 C37.110717,34.1194151 37.2903774,34.2404906 37.4422642,34.3919434 C37.5945849,34.5442642 37.7156604,34.7443208 37.8050566,34.9547925 C37.8948868,35.1656981 37.9473962,35.4178302 37.9630189,35.6404528 L34.4869811,35.6404528 C34.5026038,35.4178302 34.5529434,35.167434 34.6388679,34.9608679 L34.6388679,34.9608679 Z M27.3461321,26.0976226 C27.1946792,26.2191321 27.0284717,26.3067925 26.8466415,26.3610377 C26.6648113,26.415717 26.4890566,26.4430566 26.3198113,26.4430566 C25.9804528,26.4430566 25.7383019,26.3098302 25.5929245,26.0433774 C25.4475472,25.7773585 25.3750755,25.4566604 25.3750755,25.081283 C25.3750755,24.6455849 25.484434,24.3010189 25.702283,24.046283 C25.920566,23.7924151 26.2842264,23.6110189 26.7928302,23.5020943 C26.9503585,23.4656415 27.1269811,23.4083585 27.3209623,23.3293774 C27.5145094,23.2512642 27.6451321,23.1449434 27.8681887,23.011717 L27.8681887,24.9359057 C27.8681887,25.2023585 27.8174151,25.4323585 27.7206415,25.6259057 C27.623434,25.8194528 27.4975849,25.9769811 27.3461321,26.0976226 L27.3461321,26.0976226 Z M25.415434,37.0946604 C25.415434,37.2343962 25.357283,37.3836792 25.2869811,37.5429434 C25.2166792,37.7017736 25.0843208,37.8493208 24.9363396,37.9851509 C24.7879245,38.1205472 24.5965472,38.2329434 24.3626415,38.3223396 C24.1283019,38.4113019 23.8475283,38.456 23.5198868,38.456 C23.3636604,38.456 23.2156792,38.4408113 23.0750755,38.409566 C22.9344717,38.3783208 22.8116604,38.3284151 22.7066415,38.2581132 C22.6011887,38.1886792 22.5152642,38.0971132 22.4488679,37.9851509 C22.3824717,37.8718868 22.3494906,37.7347547 22.3494906,37.5715849 C22.3494906,37.3233585 22.4059057,37.1276415 22.5191698,36.984 C22.632,36.8403585 22.7786792,36.7301321 22.9579057,36.6524528 C23.137566,36.5747736 23.3402264,36.5187925 23.5667547,36.4836415 C23.7928491,36.4484906 24.0172075,36.4176792 24.2398302,36.3903396 C24.4620189,36.363434 24.6976604,36.328717 24.9007547,36.2857547 C25.1038491,36.2427925 25.1928113,36.1755283 25.415434,36.0817925 L25.415434,37.0946604 L25.415434,37.0946604 Z M16.0991321,34.6141321 C16.2475472,34.4001887 16.4389245,34.2266038 16.6728302,34.0938113 C16.9067358,33.9614528 17.1918491,33.8954906 17.5273019,33.8954906 C17.8471321,33.8954906 18.1261698,33.9575472 18.3644151,34.0825283 C18.6022264,34.2070755 18.7970755,34.3745849 18.9493962,34.5850566 C19.101717,34.7959623 19.2145472,35.0359434 19.2887547,35.3041321 C19.3629623,35.5731887 19.400283,35.8483208 19.400283,36.1286604 C19.400283,36.4250566 19.3686038,36.7136415 19.3065472,36.9944151 C19.2436226,37.2747547 19.1425094,37.524717 19.0019057,37.742566 C18.8617358,37.961283 18.676,38.1361698 18.446,38.2689623 C18.216,38.4017547 17.9291509,38.4681509 17.5858868,38.4681509 C17.2421887,38.4681509 16.9496981,38.4034906 16.7079811,38.2746038 C16.4658302,38.1461509 16.2692453,37.9764717 16.1169245,37.766434 C15.9646038,37.5555283 15.8535094,37.3120755 15.7832075,37.0352075 C15.7129057,36.7583396 15.6777547,36.4719245 15.6777547,36.1759623 C15.6777547,35.8947547 15.7111698,35.6183208 15.777566,35.3449245 C15.8435283,35.0723962 15.9511509,34.8289434 16.0991321,34.6141321 L16.0991321,34.6141321 Z" id="Logo" sketch:type="MSShapeGroup"></path>
        </g>
    </g>
</svg>